# xmcd
#
# Track frame offsets: 
#        150
#        16455
#        31447
#
# Disc length: 764 seconds
#
# Revision: 0
# Processed by: cddbd v1.5.2PL0 Copyright (c) Steve Scherf et al.
# Submitted via: ExactAudioCopy v1.0b1
#
DISCID=1c02fa03
DTITLE=Wiebke Schroeder - Teufel im Leib
DYEAR=1994
DGENRE=Blues
TTITLE0=Track01  Teufel im Leib (Single Version)
TTITLE1=Track02  Gesucht und Gefunden
TTITLE2=Track03  Teufel im Leib (Long Version)
EXTD=
EXTT0=
EXTT1=
EXTT2=
PLAYORDER=
